<svg width="615" height="654" viewBox="0 0 615 654" fill="none" xmlns="http://www.w3.org/2000/svg">
<rect x="2" width="613" height="654" fill="#F8F2F2"/>
<path d="M265.167 150.834L2 68V187.921L188.919 240.036L265.167 150.834Z" fill="#FF9244"/>
<path fill-rule="evenodd" clip-rule="evenodd" d="M2 187.921V394.221L128.775 427.173L252.012 348.734L188.919 240.036L2 187.921Z" fill="#FF7918"/>
<path d="M2 496.42L140.568 536L128.775 427.173L2 394.221V496.42Z" fill="#DE7224"/>
<path fill-rule="evenodd" clip-rule="evenodd" d="M188.919 240.036L265.167 150.834L420.063 375.188L368.503 511.189L140.568 536L128.775 427.173L252.012 348.734L188.919 240.036Z" fill="#EDD8C9"/>
<path d="M492 496.42L420.063 375.188L368.503 511.189L492 496.42Z" fill="black"/>
<path d="M140.568 536L2 496.42V394.221M140.568 536L128.775 427.173M140.568 536L368.503 511.189M265.167 150.834L2 68V187.921M265.167 150.834L188.919 240.036M265.167 150.834L420.063 375.188M128.775 427.173L252.012 348.734L188.919 240.036M128.775 427.173L2 394.221M188.919 240.036L2 187.921M2 187.921V394.221M420.063 375.188L492 496.42L368.503 511.189M420.063 375.188L368.503 511.189" stroke="black" stroke-width="3"/>
<path d="M463.28 485.8C494.189 495.691 527.186 492.24 558.209 500.404C573.096 504.322 586.824 506.88 602.16 506.88" stroke="black" stroke-width="23" stroke-linecap="round"/>
</svg>
