<svg width="485" height="423" viewBox="0 0 485 423" fill="none" xmlns="http://www.w3.org/2000/svg">
<path d="M263.5 41.5L1 1.5V103L173.023 128.161L263.5 41.5Z" fill="#FF9244"/>
<path fill-rule="evenodd" clip-rule="evenodd" d="M1 103V287.501L108.5 305.5L224.155 243.678L173.023 128.161L1 103Z" fill="#FF7918"/>
<path d="M1 398.39L121.821 422L108.5 305.5L1 287.501V398.39Z" fill="#DE7224"/>
<path fill-rule="evenodd" clip-rule="evenodd" d="M173.023 128.161L263.5 41.5L417 255.322L374.761 374.333L121.821 422L108.5 305.5L224.155 243.678L173.023 128.161Z" fill="#EDD8C9"/>
<path d="M483.205 344.144L417 255.322L374.761 374.333L483.205 344.144Z" fill="black"/>
<path d="M121.821 422L1 398.39V287.501M121.821 422L108.5 305.5M121.821 422L374.761 374.333M263.5 41.5L1 1.5V103M263.5 41.5L173.023 128.161M263.5 41.5L417 255.322M108.5 305.5L224.155 243.678L173.023 128.161M108.5 305.5L1 287.501M173.023 128.161L1 103M1 103V287.501M417 255.322L483.205 344.144L374.761 374.333M417 255.322L374.761 374.333" stroke="black"/>
</svg>
